<svg xmlns="http://www.w3.org/2000/svg" viewBox="0 0 20 20" shape-rendering="crispEdges"><rect width="20" height="20" rx="4.5" fill="#dedede" shape-rendering="geometricPrecision"/><rect x="8" y="3" width="4" height="1" fill="#0a0a0a"/><rect x="7" y="4" width="6" height="1" fill="#0a0a0a"/><rect x="5" y="5" width="9" height="1" fill="#0a0a0a"/><rect x="4" y="6" width="7" height="1" fill="#0a0a0a"/><rect x="11" y="6" width="2" height="1" fill="#e3262b"/><rect x="13" y="6" width="2" height="1" fill="#0a0a0a"/><rect x="4" y="7" width="7" height="1" fill="#0a0a0a"/><rect x="11" y="7" width="2" height="1" fill="#e3262b"/><rect x="13" y="7" width="3" height="1" fill="#0a0a0a"/><rect x="3" y="8" width="14" height="1" fill="#0a0a0a"/><rect x="3" y="9" width="15" height="1" fill="#0a0a0a"/><rect x="2" y="10" width="10" height="1" fill="#0a0a0a"/><rect x="17" y="10" width="1" height="1" fill="#0a0a0a"/><rect x="2" y="11" width="9" height="1" fill="#0a0a0a"/><rect x="3" y="12" width="8" height="1" fill="#0a0a0a"/><rect x="4" y="13" width="8" height="1" fill="#0a0a0a"/><rect x="6" y="14" width="6" height="1" fill="#0a0a0a"/><rect x="8" y="15" width="5" height="1" fill="#0a0a0a"/><rect x="10" y="16" width="3" height="1" fill="#0a0a0a"/></svg>
